<svg width="153" height="50" viewBox="0 0 153 50" fill="none" xmlns="http://www.w3.org/2000/svg">
<path d="M47.9353 35.7084V18.8988H52.4962V25.6949H52.7259L57.7791 18.8988H63.0947L57.4181 26.3843L63.226 35.7084H57.7791L54.0056 29.4048L52.4962 31.3747V35.7084H47.9353Z" fill="#121315"/>
<path d="M79.663 27.3036C79.663 29.175 79.2993 30.7536 78.572 32.0395C77.8446 33.3199 76.863 34.2912 75.627 34.9533C74.3911 35.6099 73.013 35.9382 71.4927 35.9382C69.9614 35.9382 68.5778 35.6072 67.3419 34.9451C66.1114 34.2775 65.1325 33.3035 64.4052 32.0231C63.6833 30.7372 63.3223 29.164 63.3223 27.3036C63.3223 25.4322 63.6833 23.8563 64.4052 22.5759C65.1325 21.29 66.1114 20.3187 67.3419 19.6621C68.5778 19 69.9614 18.6689 71.4927 18.6689C73.013 18.6689 74.3911 19 75.627 19.6621C76.863 20.3187 77.8446 21.29 78.572 22.5759C79.2993 23.8563 79.663 25.4322 79.663 27.3036ZM74.9708 27.3036C74.9708 26.2968 74.8368 25.4486 74.5688 24.7592C74.3063 24.0642 73.9153 23.5389 73.3958 23.1833C72.8817 22.8221 72.2474 22.6415 71.4927 22.6415C70.738 22.6415 70.1009 22.8221 69.5813 23.1833C69.0673 23.5389 68.6763 24.0642 68.4083 24.7592C68.1458 25.4486 68.0145 26.2968 68.0145 27.3036C68.0145 28.3104 68.1458 29.1613 68.4083 29.8562C68.6763 30.5457 69.0673 31.071 69.5813 31.4321C70.1009 31.7878 70.738 31.9656 71.4927 31.9656C72.2474 31.9656 72.8817 31.7878 73.3958 31.4321C73.9153 31.071 74.3063 30.5457 74.5688 29.8562C74.8368 29.1613 74.9708 28.3104 74.9708 27.3036Z" fill="#121315"/>
<path d="M96.3092 18.8988V35.7084H92.5029L86.4326 26.8768H86.3342V35.7084H81.7732V18.8988H85.6451L91.617 27.6976H91.7483V18.8988H96.3092Z" fill="#121315"/>
<path d="M107.523 24.1518C107.479 23.6046 107.274 23.1778 106.908 22.8714C106.547 22.5649 105.997 22.4117 105.259 22.4117C104.789 22.4117 104.403 22.4692 104.102 22.5841C103.807 22.6935 103.588 22.844 103.446 23.0355C103.304 23.227 103.23 23.4459 103.224 23.6921C103.214 23.8946 103.249 24.0779 103.331 24.2421C103.419 24.4008 103.555 24.5458 103.741 24.6771C103.927 24.8029 104.165 24.9178 104.455 25.0218C104.745 25.1258 105.089 25.2188 105.489 25.3009L106.867 25.5964C107.796 25.7933 108.592 26.0533 109.254 26.3761C109.915 26.6989 110.457 27.0792 110.878 27.517C111.299 27.9493 111.608 28.4363 111.805 28.978C112.007 29.5197 112.111 30.1107 112.117 30.7509C112.111 31.8562 111.835 32.7919 111.288 33.558C110.741 34.324 109.959 34.9068 108.942 35.3062C107.93 35.7057 106.714 35.9054 105.292 35.9054C103.831 35.9054 102.557 35.6893 101.469 35.257C100.386 34.8247 99.544 34.1599 98.9424 33.2625C98.3463 32.3596 98.0455 31.205 98.0401 29.7988H102.371C102.399 30.3131 102.527 30.7454 102.757 31.0956C102.987 31.4458 103.309 31.7112 103.725 31.8918C104.146 32.0723 104.646 32.1626 105.226 32.1626C105.713 32.1626 106.12 32.1024 106.448 31.9821C106.776 31.8617 107.025 31.6948 107.195 31.4814C107.364 31.268 107.452 31.0245 107.457 30.7509C107.452 30.4937 107.367 30.2694 107.203 30.0778C107.044 29.8808 106.782 29.7057 106.415 29.5525C106.049 29.3938 105.554 29.2461 104.931 29.1093L103.257 28.7482C101.77 28.4253 100.597 27.8863 99.7381 27.1312C98.885 26.3706 98.4612 25.3337 98.4666 24.0205C98.4612 22.9534 98.7455 22.0205 99.3198 21.2216C99.8994 20.4172 100.701 19.7907 101.723 19.342C102.751 18.8933 103.93 18.6689 105.259 18.6689C106.615 18.6689 107.788 18.896 108.778 19.3502C109.768 19.8044 110.531 20.4446 111.067 21.2708C111.608 22.0916 111.881 23.0519 111.887 24.1518H107.523Z" fill="#121315"/>
<path d="M113.392 22.5759V18.8988H127.994V22.5759H122.941V35.7084H118.445V22.5759H113.392Z" fill="#121315"/>
<path d="M134.271 18.8988V35.7084H129.71V18.8988H134.271Z" fill="#121315"/>
<path d="M152.117 25.2024H147.491C147.458 24.8193 147.37 24.4719 147.228 24.16C147.091 23.8481 146.9 23.58 146.654 23.3556C146.413 23.1258 146.121 22.9507 145.776 22.8303C145.432 22.7045 145.041 22.6415 144.603 22.6415C143.837 22.6415 143.189 22.8276 142.659 23.1997C142.134 23.5718 141.735 24.1053 141.461 24.8002C141.193 25.4951 141.059 26.3296 141.059 27.3036C141.059 28.3323 141.196 29.1941 141.47 29.8891C141.748 30.5785 142.15 31.0983 142.675 31.4485C143.2 31.7933 143.832 31.9656 144.57 31.9656C144.991 31.9656 145.369 31.9137 145.702 31.8097C146.036 31.7003 146.326 31.5443 146.572 31.3418C146.818 31.1394 147.018 30.8959 147.171 30.6113C147.329 30.3213 147.436 29.9958 147.491 29.6346L152.117 29.6674C152.063 30.3788 151.863 31.1038 151.518 31.8425C151.174 32.5758 150.684 33.2543 150.05 33.8781C149.421 34.4964 148.642 34.9943 147.712 35.3719C146.782 35.7494 145.702 35.9382 144.472 35.9382C142.93 35.9382 141.546 35.6072 140.321 34.9451C139.102 34.283 138.136 33.309 137.425 32.0231C136.72 30.7372 136.367 29.164 136.367 27.3036C136.367 25.4322 136.728 23.8563 137.45 22.5759C138.172 21.29 139.145 20.3187 140.37 19.6621C141.595 19 142.962 18.6689 144.472 18.6689C145.533 18.6689 146.509 18.814 147.4 19.104C148.292 19.394 149.074 19.818 149.746 20.3762C150.419 20.9288 150.961 21.6101 151.371 22.4199C151.781 23.2298 152.03 24.1573 152.117 25.2024Z" fill="#121315"/>
<path d="M146.027 25.8013C136.931 18.5884 119.266 13.6958 98.9629 13.6958C78.6598 13.6958 60.9948 18.5884 51.8987 25.8013C64.5121 21.0661 80.9654 18.2011 98.9629 18.2011C116.96 18.2011 133.414 21.0661 146.027 25.8013Z" fill="#F55B1F"/>
<mask id="mask0_1023_584" style="mask-type:luminance" maskUnits="userSpaceOnUse" x="6" y="0" width="36" height="36">
<path d="M23.9364 35.6081C33.7693 35.6081 41.7405 27.637 41.7405 17.8041C41.7405 7.97115 33.7693 0 23.9364 0C14.1035 0 6.13232 7.97115 6.13232 17.8041C6.13232 27.637 14.1035 35.6081 23.9364 35.6081Z" fill="white"/>
</mask>
<g mask="url(#mask0_1023_584)">
<path d="M36.0024 14.0636V6.29492H28.6335V14.0636H36.0024ZM29.0848 8.03771H35.1724V8.71319H29.0848V8.03771ZM29.0848 10.1488H35.1724V10.8243H29.0848V10.1488ZM35.1721 12.4289V13.02H29.0845V12.4289H35.1721Z" fill="#121315"/>
<path d="M28.6335 23.036C29.7677 23.3899 30.8621 23.7797 31.7078 24.0959C33.6428 24.8187 35.0908 26.5094 35.5163 28.5296H35.6771C35.7898 28.5296 35.8988 28.546 36.0024 28.5758V22.5083H28.6335V23.036Z" fill="#121315"/>
<path d="M28.6335 22.0013H36.0024V14.6548H28.6335V22.0013ZM29.0848 15.6683H35.1724V16.3438H29.0848V15.6683ZM29.0848 17.7794H35.1724V18.4549H29.0848V17.7794ZM35.1721 20.0592V20.6503H29.0845V20.0592H35.1721Z" fill="#121315"/>
<path d="M36.0024 14.064H28.6335V14.6551H36.0024V14.064Z" fill="#121315"/>
<path d="M36.0024 22.002H28.6335V22.5087H36.0024V22.002Z" fill="#121315"/>
<path d="M35.172 15.6685H29.0845V16.3439H35.172V15.6685Z" fill="white"/>
<path d="M35.172 17.7798H29.0845V18.4553H35.172V17.7798Z" fill="white"/>
<path d="M35.172 20.0601H29.0845V20.6512H35.172V20.0601Z" fill="white"/>
<path d="M35.172 8.03809H29.0845V8.71357H35.172V8.03809Z" fill="white"/>
<path d="M35.172 10.1499H29.0845V10.8254H35.172V10.1499Z" fill="white"/>
<path d="M35.172 12.4287H29.0845V13.0198H35.172V12.4287Z" fill="white"/>
<path d="M19.6373 22.867C20.0158 22.7546 20.3951 22.6476 20.7674 22.5511C21.025 21.937 21.6272 21.522 22.3211 21.522H25.3964C26.0903 21.522 26.6925 21.9367 26.9501 22.5511C27.4401 22.6782 27.9418 22.8225 28.4387 22.9751V22.5075V22.0007V14.6542V14.0631V6.29471H28.6331V0.953125L19.5127 4.5106V9.43178H19.6373V22.867ZM26.0844 5.88478C26.0844 5.60989 26.3259 5.38708 26.6234 5.38708C26.9209 5.38708 27.1624 5.60989 27.1624 5.88478V8.56293H26.0844V5.88478ZM26.0844 11.125C26.0844 10.8501 26.3259 10.6273 26.6234 10.6273C26.9209 10.6273 27.1624 10.8501 27.1624 11.125V13.8029H26.0844V11.125ZM26.0844 16.3658C26.0844 16.0909 26.3259 15.8678 26.6234 15.8678C26.9209 15.8678 27.1624 16.0906 27.1624 16.3658V19.0437H26.0844V16.3658ZM23.5212 5.88478C23.5212 5.60989 23.7624 5.38708 24.0602 5.38708C24.358 5.38708 24.5992 5.60989 24.5992 5.88478V8.56293H23.5212V5.88478ZM23.5212 11.125C23.5212 10.8501 23.7624 10.6273 24.0602 10.6273C24.358 10.6273 24.5992 10.8501 24.5992 11.125V13.8029H23.5212V11.125ZM23.5212 16.3658C23.5212 16.0909 23.7624 15.8678 24.0602 15.8678C24.358 15.8678 24.5992 16.0906 24.5992 16.3658V19.0437H23.5212V16.3658ZM20.9579 5.88478C20.9579 5.60989 21.1994 5.38708 21.497 5.38708C21.7945 5.38708 22.036 5.60989 22.036 5.88478V8.56293H20.9579V5.88478ZM20.9579 11.125C20.9579 10.8501 21.1994 10.6273 21.497 10.6273C21.7945 10.6273 22.036 10.8501 22.036 11.125V13.8029H20.9579V11.125ZM20.9579 16.3658C20.9579 16.0909 21.1994 15.8678 21.497 15.8678C21.7945 15.8678 22.036 16.0906 22.036 16.3658V19.0437H20.9579V16.3658Z" fill="#121315"/>
<path d="M28.633 6.29492H28.4385V14.0636H28.633V6.29492Z" fill="#121315"/>
<path d="M28.633 14.6548H28.4385V22.0013H28.633V14.6548Z" fill="#121315"/>
<path d="M28.633 22.5083H28.4385V22.976C28.5033 22.9958 28.5681 23.0159 28.633 23.036V22.5083Z" fill="#121315"/>
<path d="M28.633 14.064H28.4385V14.6551H28.633V14.064Z" fill="#121315"/>
<path d="M28.633 22.002H28.4385V22.5087H28.633V22.002Z" fill="#121315"/>
<path d="M22.0361 5.88539C22.0361 5.6105 21.7949 5.3877 21.497 5.3877C21.1992 5.3877 20.958 5.6105 20.958 5.88539V8.56355H22.0361V5.88539Z" fill="white"/>
<path d="M24.5993 5.88539C24.5993 5.6105 24.3581 5.3877 24.0603 5.3877C23.7627 5.3877 23.5212 5.6105 23.5212 5.88539V8.56355H24.5993V5.88539Z" fill="white"/>
<path d="M27.1628 5.88539C27.1628 5.6105 26.9213 5.3877 26.6237 5.3877C26.3262 5.3877 26.0847 5.6105 26.0847 5.88539V8.56355H27.1628V5.88539Z" fill="white"/>
<path d="M22.0361 11.1261C22.0361 10.8512 21.7949 10.6284 21.497 10.6284C21.1992 10.6284 20.958 10.8512 20.958 11.1261V13.804H22.0361V11.1261Z" fill="white"/>
<path d="M24.5993 11.1261C24.5993 10.8512 24.3581 10.6284 24.0603 10.6284C23.7627 10.6284 23.5212 10.8512 23.5212 11.1261V13.804H24.5993V11.1261Z" fill="white"/>
<path d="M27.1628 11.1261C27.1628 10.8512 26.9213 10.6284 26.6237 10.6284C26.3262 10.6284 26.0847 10.8512 26.0847 11.1261V13.804H27.1628V11.1261Z" fill="white"/>
<path d="M22.0361 16.3666C22.0361 16.0917 21.7949 15.8687 21.497 15.8687C21.1992 15.8687 20.958 16.0915 20.958 16.3666V19.0445H22.0361V16.3666Z" fill="white"/>
<path d="M24.5993 16.3666C24.5993 16.0917 24.3581 15.8687 24.0603 15.8687C23.7627 15.8687 23.5212 16.0915 23.5212 16.3666V19.0445H24.5993V16.3666Z" fill="white"/>
<path d="M27.1628 16.3666C27.1628 16.0917 26.9213 15.8687 26.6237 15.8687C26.3262 15.8687 26.0847 16.0915 26.0847 16.3666V19.0445H27.1628V16.3666Z" fill="white"/>
<path d="M12.2018 28.5299C12.6273 26.5094 14.0754 24.8187 16.0104 24.0959C16.9619 23.7404 18.2285 23.2908 19.5126 22.9049V9.43262H11.8708V28.5432C11.9266 28.535 11.9832 28.5299 12.041 28.5299H12.2018Z" fill="#121315"/>
<path d="M19.6373 22.8678V9.43262H19.5127V22.9049C19.5543 22.8925 19.5956 22.8803 19.6373 22.8678Z" fill="#121315"/>
<path d="M13.3665 20.7781C13.6156 20.7781 13.8175 20.6527 13.8175 20.4984V11.156C13.8175 11.0014 13.6154 10.876 13.3665 10.876C13.1171 10.876 12.9155 11.0014 12.9155 11.156V20.4984C12.9155 20.6527 13.1171 20.7781 13.3665 20.7781Z" fill="#F6F5F1"/>
<path d="M14.9583 20.7781C15.2075 20.7781 15.4096 20.6527 15.4096 20.4984V11.156C15.4096 11.0014 15.2075 10.876 14.9583 10.876C14.7092 10.876 14.5071 11.0014 14.5071 11.156V20.4984C14.5071 20.6527 14.7092 20.7781 14.9583 20.7781Z" fill="#F6F5F1"/>
<path d="M16.5506 20.7781C16.8 20.7781 17.0019 20.6527 17.0019 20.4984V11.156C17.0019 11.0014 16.8 10.876 16.5506 10.876C16.3015 10.876 16.0996 11.0014 16.0996 11.156V20.4984C16.0993 20.6527 16.3015 20.7781 16.5506 20.7781Z" fill="#F6F5F1"/>
<path d="M18.1427 21.229C18.3918 21.229 18.5937 21.0979 18.5937 20.9366V11.1704C18.5937 11.009 18.3918 10.8779 18.1427 10.8779C17.8933 10.8779 17.6914 11.009 17.6914 11.1704V20.9366C17.6914 21.0979 17.8935 21.229 18.1427 21.229Z" fill="#F6F5F1"/>
</g>
<path d="M47.8727 43.2214L23.9364 10.3384L0 43.2214H47.8727Z" fill="#121315"/>
<path d="M36.2668 33.248L23.9366 16.3091L11.6063 33.248L7.28955 39.1781V50C12.5935 49.2541 18.1989 48.8563 23.9363 48.8563C29.6739 48.8563 35.2791 49.2541 40.583 50V39.1781L36.2668 33.248Z" fill="#FFFDFB"/>
<path d="M23.0877 31.2012H18.3723V37.0481H23.0877V31.2012Z" fill="#F55B1F"/>
<path d="M29.5003 31.2012H24.7849V37.0481H29.5003V31.2012Z" fill="#F55B1F"/>
<path d="M23.0877 38.1802H18.3723V44.0271H23.0877V38.1802Z" fill="#F55B1F"/>
<path d="M29.5003 38.1802H24.7849V44.0271H29.5003V38.1802Z" fill="#F55B1F"/>
<path d="M37.1938 28.5491L23.9349 11.1513L10.9983 28.0064L10.2144 27.4051L23.9378 9.5249L37.9797 27.9504L37.1938 28.5491Z" fill="white"/>
</svg>
