<svg width="168" height="55" viewBox="0 0 168 55" fill="none" xmlns="http://www.w3.org/2000/svg">
<path d="M52.7292 39.2797V20.7889H57.7463V28.2647H57.999L63.5575 20.7889H69.4047L63.1604 29.0231L69.5491 39.2797H63.5575L59.4066 32.3456L57.7463 34.5125V39.2797H52.7292Z" fill="#121315"/>
<path d="M87.6299 30.0343C87.6299 32.0928 87.2299 33.8294 86.4298 35.2438C85.6297 36.6523 84.5499 37.7207 83.1904 38.449C81.8308 39.1713 80.3149 39.5325 78.6425 39.5325C76.9581 39.5325 75.4362 39.1683 74.0766 38.44C72.7231 37.7057 71.6463 36.6343 70.8462 35.2258C70.0521 33.8113 69.6551 32.0808 69.6551 30.0343C69.6551 27.9758 70.0521 26.2423 70.8462 24.8338C71.6463 23.4193 72.7231 22.3509 74.0766 21.6286C75.4362 20.9003 76.9581 20.5361 78.6425 20.5361C80.3149 20.5361 81.8308 20.9003 83.1904 21.6286C84.5499 22.3509 85.6297 23.4193 86.4298 24.8338C87.2299 26.2423 87.6299 27.9758 87.6299 30.0343ZM82.4685 30.0343C82.4685 28.9268 82.3211 27.9938 82.0263 27.2354C81.7376 26.471 81.3074 25.8931 80.736 25.5019C80.1705 25.1046 79.4727 24.906 78.6425 24.906C77.8123 24.906 77.1115 25.1046 76.54 25.5019C75.9746 25.8931 75.5444 26.471 75.2497 27.2354C74.9609 27.9938 74.8165 28.9268 74.8165 30.0343C74.8165 31.1418 74.9609 32.0778 75.2497 32.8422C75.5444 33.6006 75.9746 34.1785 76.54 34.5757C77.1115 34.967 77.8123 35.1626 78.6425 35.1626C79.4727 35.1626 80.1705 34.967 80.736 34.5757C81.3074 34.1785 81.7376 33.6006 82.0263 32.8422C82.3211 32.0778 82.4685 31.1418 82.4685 30.0343Z" fill="#121315"/>
<path d="M105.941 20.7889V39.2797H101.754L95.0766 29.5648H94.9683V39.2797H89.9512V20.7889H94.2103L100.779 30.4677H100.924V20.7889H105.941Z" fill="#121315"/>
<path d="M118.276 26.5673C118.228 25.9654 118.002 25.4959 117.599 25.1588C117.202 24.8217 116.598 24.6532 115.786 24.6532C115.268 24.6532 114.844 24.7164 114.513 24.8428C114.188 24.9632 113.948 25.1287 113.791 25.3394C113.635 25.5501 113.554 25.7908 113.548 26.0617C113.536 26.2844 113.575 26.486 113.665 26.6666C113.761 26.8412 113.912 27.0007 114.116 27.1451C114.321 27.2836 114.582 27.41 114.901 27.5243C115.22 27.6387 115.599 27.741 116.038 27.8313L117.554 28.1563C118.577 28.373 119.452 28.6589 120.18 29.0141C120.908 29.3692 121.503 29.7875 121.967 30.269C122.43 30.7446 122.77 31.2803 122.986 31.8761C123.209 32.472 123.323 33.1221 123.329 33.8263C123.323 35.0422 123.019 36.0715 122.418 36.9141C121.816 37.7568 120.956 38.3979 119.837 38.8373C118.724 39.2767 117.386 39.4963 115.822 39.4963C114.215 39.4963 112.814 39.2586 111.617 38.7831C110.426 38.3076 109.499 37.5762 108.837 36.5891C108.182 35.596 107.851 34.3259 107.845 32.779H112.609C112.639 33.3448 112.781 33.8203 113.033 34.2055C113.286 34.5908 113.641 34.8827 114.098 35.0813C114.561 35.28 115.112 35.3793 115.749 35.3793C116.285 35.3793 116.733 35.3131 117.094 35.1806C117.455 35.0482 117.729 34.8646 117.915 34.6299C118.102 34.3951 118.198 34.1273 118.204 33.8263C118.198 33.5434 118.105 33.2967 117.924 33.086C117.75 32.8693 117.461 32.6767 117.058 32.5082C116.655 32.3336 116.11 32.1711 115.425 32.0206L113.584 31.6233C111.948 31.2682 110.657 30.6753 109.713 29.8447C108.774 29.008 108.308 27.8674 108.314 26.4228C108.308 25.2491 108.621 24.2228 109.252 23.3441C109.89 22.4592 110.771 21.7701 111.896 21.2765C113.027 20.7829 114.324 20.5361 115.786 20.5361C117.277 20.5361 118.568 20.7859 119.657 21.2855C120.745 21.7851 121.585 22.4893 122.174 23.3982C122.77 24.3011 123.07 25.3574 123.077 26.5673H118.276Z" fill="#121315"/>
<path d="M124.732 24.8338V20.7889H140.794V24.8338H135.236V39.2797H130.291V24.8338H124.732Z" fill="#121315"/>
<path d="M147.699 20.7889V39.2797H142.682V20.7889H147.699Z" fill="#121315"/>
<path d="M167.33 27.723H162.241C162.205 27.3016 162.108 26.9194 161.952 26.5763C161.802 26.2332 161.591 25.9383 161.32 25.6915C161.056 25.4387 160.734 25.2461 160.355 25.1137C159.976 24.9752 159.546 24.906 159.065 24.906C158.222 24.906 157.509 25.1107 156.926 25.52C156.348 25.9293 155.909 26.5161 155.609 27.2806C155.314 28.045 155.166 28.9629 155.166 30.0343C155.166 31.1659 155.317 32.1139 155.618 32.8783C155.924 33.6367 156.366 34.2086 156.944 34.5938C157.521 34.973 158.216 35.1626 159.028 35.1626C159.492 35.1626 159.907 35.1054 160.274 34.991C160.641 34.8707 160.959 34.6991 161.23 34.4764C161.501 34.2537 161.72 33.9858 161.889 33.6729C162.063 33.3538 162.181 32.9957 162.241 32.5984L167.33 32.6346C167.27 33.417 167.05 34.2146 166.671 35.0272C166.292 35.8337 165.754 36.5801 165.056 37.2663C164.364 37.9464 163.507 38.4942 162.484 38.9095C161.462 39.3248 160.274 39.5325 158.92 39.5325C157.224 39.5325 155.702 39.1683 154.354 38.44C153.013 37.7117 151.951 36.6403 151.169 35.2258C150.393 33.8113 150.005 32.0808 150.005 30.0343C150.005 27.9758 150.402 26.2423 151.196 24.8338C151.99 23.4193 153.061 22.3509 154.408 21.6286C155.756 20.9003 157.26 20.5361 158.92 20.5361C160.087 20.5361 161.161 20.6956 162.142 21.0147C163.122 21.3337 163.982 21.8001 164.722 22.4141C165.462 23.022 166.058 23.7714 166.509 24.6622C166.96 25.5531 167.234 26.5733 167.33 27.723Z" fill="#121315"/>
<path d="M160.631 28.3815C150.625 20.4473 131.193 15.0654 108.86 15.0654C86.5263 15.0654 67.0946 20.4473 57.0889 28.3815C70.9637 23.1728 89.0625 20.0213 108.86 20.0213C128.657 20.0213 146.756 23.1728 160.631 28.3815Z" fill="#F55B1F"/>
<mask id="mask0_1023_583" style="mask-type:luminance" maskUnits="userSpaceOnUse" x="6" y="0" width="40" height="40">
<path d="M26.3302 39.1692C37.1465 39.1692 45.9148 30.4009 45.9148 19.5846C45.9148 8.76832 37.1465 0 26.3302 0C15.5139 0 6.74561 8.76832 6.74561 19.5846C6.74561 30.4009 15.5139 39.1692 26.3302 39.1692Z" fill="white"/>
</mask>
<g mask="url(#mask0_1023_583)">
<path d="M39.6029 15.4704V6.9248H31.4971V15.4704H39.6029ZM31.9935 8.84188H38.6898V9.58492H31.9935V8.84188ZM31.9935 11.1641H38.6898V11.9071H31.9935V11.1641ZM38.6895 13.6722V14.3225H31.9932V13.6722H38.6895Z" fill="#121315"/>
<path d="M31.4971 25.3402C32.7446 25.7295 33.9485 26.1583 34.8787 26.5062C37.0073 27.3012 38.6001 29.161 39.0682 31.3833H39.2451C39.369 31.3833 39.4889 31.4013 39.6029 31.434V24.7598H31.4971V25.3402Z" fill="#121315"/>
<path d="M31.4971 24.2018H39.6029V16.1206H31.4971V24.2018ZM31.9935 17.2355H38.6898V17.9785H31.9935V17.2355ZM31.9935 19.5577H38.6898V20.3007H31.9935V19.5577ZM38.6895 22.0655V22.7158H31.9932V22.0655H38.6895Z" fill="#121315"/>
<path d="M39.6029 15.4707H31.4971V16.1209H39.6029V15.4707Z" fill="#121315"/>
<path d="M39.6029 24.2021H31.4971V24.7596H39.6029V24.2021Z" fill="#121315"/>
<path d="M38.6895 17.2354H31.9932V17.9784H38.6895V17.2354Z" fill="white"/>
<path d="M38.6895 19.5581H31.9932V20.3011H38.6895V19.5581Z" fill="white"/>
<path d="M38.6895 22.0664H31.9932V22.7166H38.6895V22.0664Z" fill="white"/>
<path d="M38.6895 8.84229H31.9932V9.58532H38.6895V8.84229Z" fill="white"/>
<path d="M38.6895 11.1646H31.9932V11.9076H38.6895V11.1646Z" fill="white"/>
<path d="M38.6895 13.6724H31.9932V14.3226H38.6895V13.6724Z" fill="white"/>
<path d="M21.6014 25.1542C22.0177 25.0306 22.435 24.9129 22.8446 24.8067C23.1279 24.1312 23.7903 23.6747 24.5536 23.6747H27.9365C28.6998 23.6747 29.3622 24.1309 29.6455 24.8067C30.1846 24.9465 30.7364 25.1053 31.283 25.2732V24.7587V24.2013V16.1201V15.4698V6.92461H31.4969V1.04883L21.4644 4.96207V10.3754H21.6014V25.1542ZM28.6932 6.47368C28.6932 6.1713 28.9589 5.92621 29.2862 5.92621C29.6135 5.92621 29.8791 6.1713 29.8791 6.47368V9.41967H28.6932V6.47368ZM28.6932 12.238C28.6932 11.9356 28.9589 11.6905 29.2862 11.6905C29.6135 11.6905 29.8791 11.9356 29.8791 12.238V15.1837H28.6932V12.238ZM28.6932 18.0029C28.6932 17.7005 28.9589 17.4551 29.2862 17.4551C29.6135 17.4551 29.8791 17.7002 29.8791 18.0029V20.9486H28.6932V18.0029ZM25.8737 6.47368C25.8737 6.1713 26.139 5.92621 26.4666 5.92621C26.7942 5.92621 27.0596 6.1713 27.0596 6.47368V9.41967H25.8737V6.47368ZM25.8737 12.238C25.8737 11.9356 26.139 11.6905 26.4666 11.6905C26.7942 11.6905 27.0596 11.9356 27.0596 12.238V15.1837H25.8737V12.238ZM25.8737 18.0029C25.8737 17.7005 26.139 17.4551 26.4666 17.4551C26.7942 17.4551 27.0596 17.7002 27.0596 18.0029V20.9486H25.8737V18.0029ZM23.0541 6.47368C23.0541 6.1713 23.3198 5.92621 23.6471 5.92621C23.9744 5.92621 24.24 6.1713 24.24 6.47368V9.41967H23.0541V6.47368ZM23.0541 12.238C23.0541 11.9356 23.3198 11.6905 23.6471 11.6905C23.9744 11.6905 24.24 11.9356 24.24 12.238V15.1837H23.0541V12.238ZM23.0541 18.0029C23.0541 17.7005 23.3198 17.4551 23.6471 17.4551C23.9744 17.4551 24.24 17.7002 24.24 18.0029V20.9486H23.0541V18.0029Z" fill="#121315"/>
<path d="M31.4967 6.9248H31.2827V15.4704H31.4967V6.9248Z" fill="#121315"/>
<path d="M31.4967 16.1206H31.2827V24.2018H31.4967V16.1206Z" fill="#121315"/>
<path d="M31.4967 24.7598H31.2827V25.2742C31.354 25.296 31.4253 25.3181 31.4967 25.3402V24.7598Z" fill="#121315"/>
<path d="M31.4967 15.4707H31.2827V16.1209H31.4967V15.4707Z" fill="#121315"/>
<path d="M31.4967 24.2021H31.2827V24.7596H31.4967V24.2021Z" fill="#121315"/>
<path d="M24.2398 6.47422C24.2398 6.17184 23.9745 5.92676 23.6469 5.92676C23.3193 5.92676 23.054 6.17184 23.054 6.47422V9.42021H24.2398V6.47422Z" fill="white"/>
<path d="M27.0594 6.47422C27.0594 6.17184 26.7941 5.92676 26.4665 5.92676C26.1392 5.92676 25.8735 6.17184 25.8735 6.47422V9.42021H27.0594V6.47422Z" fill="white"/>
<path d="M29.8792 6.47422C29.8792 6.17184 29.6136 5.92676 29.2863 5.92676C28.959 5.92676 28.6934 6.17184 28.6934 6.47422V9.42021H29.8792V6.47422Z" fill="white"/>
<path d="M24.2398 12.2384C24.2398 11.936 23.9745 11.6909 23.6469 11.6909C23.3193 11.6909 23.054 11.936 23.054 12.2384V15.1841H24.2398V12.2384Z" fill="white"/>
<path d="M27.0594 12.2384C27.0594 11.936 26.7941 11.6909 26.4665 11.6909C26.1392 11.6909 25.8735 11.936 25.8735 12.2384V15.1841H27.0594V12.2384Z" fill="white"/>
<path d="M29.8792 12.2384C29.8792 11.936 29.6136 11.6909 29.2863 11.6909C28.959 11.6909 28.6934 11.936 28.6934 12.2384V15.1841H29.8792V12.2384Z" fill="white"/>
<path d="M24.2398 18.0033C24.2398 17.701 23.9745 17.4556 23.6469 17.4556C23.3193 17.4556 23.054 17.7007 23.054 18.0033V20.949H24.2398V18.0033Z" fill="white"/>
<path d="M27.0594 18.0033C27.0594 17.701 26.7941 17.4556 26.4665 17.4556C26.1392 17.4556 25.8735 17.7007 25.8735 18.0033V20.949H27.0594V18.0033Z" fill="white"/>
<path d="M29.8792 18.0033C29.8792 17.701 29.6136 17.4556 29.2863 17.4556C28.959 17.4556 28.6934 17.7007 28.6934 18.0033V20.949H29.8792V18.0033Z" fill="white"/>
<path d="M13.4222 31.3831C13.8902 29.1605 15.4831 27.3008 17.6116 26.5057C18.6583 26.1146 20.0516 25.6201 21.4641 25.1956V10.376H13.0581V31.3978C13.1195 31.3887 13.1817 31.3831 13.2453 31.3831H13.4222Z" fill="#121315"/>
<path d="M21.6014 25.1548V10.376H21.4644V25.1956C21.5101 25.1819 21.5556 25.1685 21.6014 25.1548Z" fill="#121315"/>
<path d="M14.7031 22.8567C14.9772 22.8567 15.1992 22.7188 15.1992 22.549V12.2723C15.1992 12.1023 14.9769 11.9644 14.7031 11.9644C14.4288 11.9644 14.207 12.1023 14.207 12.2723V22.549C14.207 22.7188 14.4288 22.8567 14.7031 22.8567Z" fill="#F6F5F1"/>
<path d="M16.4542 22.8567C16.7282 22.8567 16.9506 22.7188 16.9506 22.549V12.2723C16.9506 12.1023 16.7282 11.9644 16.4542 11.9644C16.1801 11.9644 15.9578 12.1023 15.9578 12.2723V22.549C15.9578 22.7188 16.1801 22.8567 16.4542 22.8567Z" fill="#F6F5F1"/>
<path d="M18.2058 22.8567C18.4802 22.8567 18.7022 22.7188 18.7022 22.549V12.2723C18.7022 12.1023 18.4802 11.9644 18.2058 11.9644C17.9318 11.9644 17.7097 12.1023 17.7097 12.2723V22.549C17.7094 22.7188 17.9318 22.8567 18.2058 22.8567Z" fill="#F6F5F1"/>
<path d="M19.9571 23.3521C20.2311 23.3521 20.4532 23.2079 20.4532 23.0304V12.2875C20.4532 12.11 20.2311 11.9658 19.9571 11.9658C19.6827 11.9658 19.4607 12.11 19.4607 12.2875V23.0304C19.4607 23.2079 19.683 23.3521 19.9571 23.3521Z" fill="#F6F5F1"/>
</g>
<path d="M52.6603 47.5441L26.3302 11.3726L0 47.5441H52.6603Z" fill="#121315"/>
<path d="M39.8938 36.5729L26.3304 17.9399L12.767 36.5729L8.01855 43.0961V55.0002C13.8529 54.1797 20.0189 53.7421 26.3301 53.7421C32.6415 53.7421 38.8072 54.1797 44.6416 55.0002V43.0961L39.8938 36.5729Z" fill="#FFFDFB"/>
<path d="M25.3967 34.3213H20.2097V40.7529H25.3967V34.3213Z" fill="#F55B1F"/>
<path d="M32.4506 34.3213H27.2637V40.7529H32.4506V34.3213Z" fill="#F55B1F"/>
<path d="M25.3967 41.9985H20.2097V48.4302H25.3967V41.9985Z" fill="#F55B1F"/>
<path d="M32.4506 41.9985H27.2637V48.4302H32.4506V41.9985Z" fill="#F55B1F"/>
<path d="M40.9134 31.4038L26.3286 12.2661L12.0981 30.8069L11.2358 30.1454L26.3317 10.4771L41.7779 30.7452L40.9134 31.4038Z" fill="white"/>
</svg>
